<svg width="1024" height="1024" viewBox="0 0 1024 1024" xmlns="http://www.w3.org/2000/svg">
  <defs>
    <linearGradient id="bg" x1="0" y1="0" x2="1" y2="1">
      <stop offset="0%" stop-color="#dc2626"/>
      <stop offset="100%" stop-color="#991b1b"/>
    </linearGradient>
    <filter id="shadow" x="-20%" y="-20%" width="140%" height="140%">
      <feDropShadow dx="0" dy="14" stdDeviation="20" flood-color="#000000" flood-opacity="0.25"/>
    </filter>
  </defs>

  <rect x="72" y="72" width="880" height="880" rx="196" fill="url(#bg)" filter="url(#shadow)"/>
  <rect x="88" y="88" width="848" height="848" rx="178" fill="none" stroke="#ffffff" stroke-opacity="0.22" stroke-width="8"/>

  <g transform="translate(512 512) scale(2.35) translate(-128 -128)">
    <path fill="#ffffff" d="M128,120a44,44,0,1,1,44-44A44.05,44.05,0,0,1,128,120Zm60,8a44,44,0,1,0,44,44A44.05,44.05,0,0,0,188,128ZM68,128a44,44,0,1,0,44,44A44.05,44.05,0,0,0,68,128Z"/>
  </g>
</svg>
